<svg width="458.33006591796874px" height="143.84003295898435px" xmlns="http://www.w3.org/2000/svg" viewBox="20.83496704101563 3.079983520507824 458.33006591796874 143.84003295898435" style="background: rgba(0, 0, 0, 0);" preserveAspectRatio="xMidYMid"><defs><filter id="editing-jagged" x="-100%" y="-100%" width="300%" height="300%"><feTurbulence result="turb" baseFrequency="0" numOctaves="1" seed="1"></feTurbulence><feDisplacementMap in="SourceGraphic" in2="turb" scale="20"></feDisplacementMap></filter></defs><g filter="url(#editing-jagged)"><g transform="translate(88.58001613616943, 114.81794166564941)"><path d="M31.82 0L28.94 0L29.02-20.59L29.02-20.59Q29.02-27.14 26.09-32.02L26.09-32.02L26.09-32.02Q23.17-36.89 18.60-36.89L18.60-36.89L18.60-36.89Q14.04-36.89 8.35-30.42L8.35-30.42L8.35 0L5.46 0L5.46-39L8.35-39L8.35-34.32L8.35-34.32Q13.42-39.78 19.34-39.78L19.34-39.78L19.34-39.78Q21.76-39.78 24.61-38.06L24.61-38.06L24.61-38.06Q27.46-36.35 29.41-32.68L29.41-32.68L29.41-32.68Q34.94-39.78 42.12-39.78L42.12-39.78L42.12-39.78Q46.10-39.78 50.39-36.04L50.39-36.04L50.39-36.04Q52.57-34.01 54.02-30.03L54.02-30.03L54.02-30.03Q55.46-26.05 55.46-20.67L55.46-20.67L55.38 0L52.49 0L52.57-20.59L52.57-20.59Q52.57-27.14 49.41-32.02L49.41-32.02L49.41-32.02Q46.25-36.89 41.65-36.89L41.65-36.89L41.65-36.89Q38.61-36.89 35.53-34.79L35.53-34.79L35.53-34.79Q32.45-32.68 30.50-29.95L30.50-29.95L30.50-29.95Q31.90-25.90 31.90-20.67L31.90-20.67L31.82 0ZM68.72-39L68.72 0L65.83 0L65.83-39L68.72-39ZM65.99-45.16L65.99-51.87L68.87-51.87L68.87-45.16L65.99-45.16ZM82.84-58.42L82.84 0L79.95 0L79.95-58.42L82.84-58.42ZM115.83-34.32L115.83-39L118.72-39L118.72 0.08L118.72 0.08Q114.04 0.08 110.53-0.31L110.53-0.31L110.53-0.31Q107.02-0.70 103.23-1.99L103.23-1.99L103.23-1.99Q99.45-3.28 97.03-5.46L97.03-5.46L97.03-5.46Q94.61-7.64 93.05-11.51L93.05-11.51L93.05-11.51Q91.49-15.37 91.49-20.20L91.49-20.20L91.49-20.20Q91.49-25.04 92.47-28.51L92.47-28.51L92.47-28.51Q93.44-31.98 94.97-34.05L94.97-34.05L94.97-34.05Q96.49-36.11 98.36-37.44L98.36-37.44L98.36-37.44Q101.63-39.86 104.83-39.86L104.83-39.86L104.83-39.86Q110.68-39.86 115.83-34.32L115.83-34.32ZM94.38-20.59L94.38-20.59L94.38-20.59Q94.38-10.37 100.70-6.40L100.70-6.40L100.70-6.40Q106.31-2.89 115.83-2.89L115.83-2.89L115.83-30.42L115.83-30.42Q113.18-33.46 110.72-35.22L110.72-35.22L110.72-35.22Q108.26-36.97 105.30-36.97L105.30-36.97L105.30-36.97Q100.39-36.97 97.38-32.64L97.38-32.64L97.38-32.64Q94.38-28.31 94.38-20.59ZM156.78 0L153.89 0L153.97-20.59L153.97-20.59Q153.97-27.14 150.81-32.02L150.81-32.02L150.81-32.02Q147.65-36.89 142.94-36.89L142.94-36.89L142.94-36.89Q138.22-36.89 132.52-30.42L132.52-30.42L132.52 0L129.64 0L129.64-39L132.52-39L132.52-34.32L132.52-34.32Q137.59-39.78 143.52-39.78L143.52-39.78L143.52-39.78Q147.50-39.78 151.79-36.04L151.79-36.04L151.79-36.04Q153.97-34.01 155.42-30.03L155.42-30.03L155.42-30.03Q156.86-26.05 156.86-20.67L156.86-20.67L156.78 0ZM189.31-34.32L189.31-39L192.19-39L192.19 1.33L192.19 1.33Q192.19 6.71 190.87 10.72L190.87 10.72L190.87 10.72Q189.54 14.74 187.51 16.69L187.51 16.69L187.51 16.69Q183.53 20.51 179.63 20.51L179.63 20.51L179.63 20.51Q174.41 20.51 169.81 16.15L169.81 16.15L169.81 12.40L169.81 12.40Q174.72 17.63 179.56 17.63L179.56 17.63L179.56 17.63Q184.39 17.63 186.85 12.99L186.85 12.99L186.85 12.99Q189.31 8.35 189.31 1.25L189.31 1.25L189.31 0L189.31 0Q175.34-0.55 169.81-6.08L169.81-6.08L169.81-6.08Q164.97-11.08 164.97-20.67L164.97-20.67L164.97-20.67Q164.97-32.45 171.83-37.44L171.83-37.44L171.83-37.44Q175.11-39.86 178.31-39.86L178.31-39.86L178.31-39.86Q184.16-39.86 189.31-34.32L189.31-34.32ZM178.78-36.97L178.78-36.97Q174.17-36.97 171.02-32.06L171.02-32.06L171.02-32.06Q167.86-27.14 167.86-21.33L167.86-21.33L167.86-21.33Q167.86-15.52 169.49-11.93L169.49-11.93L169.49-11.93Q171.13-8.35 174.17-6.40L174.17-6.40L174.17-6.40Q179.79-2.89 189.31-2.89L189.31-2.89L189.31-30.42L189.31-30.42Q186.65-33.46 184.20-35.22L184.20-35.22L184.20-35.22Q181.74-36.97 178.78-36.97L178.78-36.97ZM206.00-29.41L206.00 0L203.11 0L203.11-39L206.00-39L206.00-33.31L206.00-33.31Q207.64-35.26 211.03-37.48L211.03-37.48L211.03-37.48Q214.42-39.70 217.50-39.70L217.50-39.70L217.50-39.70Q220.58-39.70 222.89-37.95L222.89-37.95L222.89-37.95Q225.19-36.19 225.26-32.21L225.26-32.21L222.38-32.21L222.38-32.21Q222.38-34.40 220.97-35.65L220.97-35.65L220.97-35.65Q219.57-36.89 217.15-36.89L217.15-36.89L217.15-36.89Q214.73-36.89 211.26-34.55L211.26-34.55L211.26-34.55Q207.79-32.21 206.00-29.41L206.00-29.41ZM253.58-34.32L253.58-39L256.46-39L256.46 0.08L256.46 0.08Q251.78 0.08 248.27-0.31L248.27-0.31L248.27-0.31Q244.76-0.70 240.98-1.99L240.98-1.99L240.98-1.99Q237.20-3.28 234.78-5.46L234.78-5.46L234.78-5.46Q232.36-7.64 230.80-11.51L230.80-11.51L230.80-11.51Q229.24-15.37 229.24-20.20L229.24-20.20L229.24-20.20Q229.24-25.04 230.22-28.51L230.22-28.51L230.22-28.51Q231.19-31.98 232.71-34.05L232.71-34.05L232.71-34.05Q234.23-36.11 236.11-37.44L236.11-37.44L236.11-37.44Q239.38-39.86 242.58-39.86L242.58-39.86L242.58-39.86Q248.43-39.86 253.58-34.32L253.58-34.32ZM232.13-20.59L232.13-20.59L232.13-20.59Q232.13-10.37 238.45-6.40L238.45-6.40L238.45-6.40Q244.06-2.89 253.58-2.89L253.58-2.89L253.58-30.42L253.58-30.42Q250.93-33.46 248.47-35.22L248.47-35.22L248.47-35.22Q246.01-36.97 243.05-36.97L243.05-36.97L243.05-36.97Q238.13-36.97 235.13-32.64L235.13-32.64L235.13-32.64Q232.13-28.31 232.13-20.59ZM293.75 0L290.86 0L290.94-20.59L290.94-20.59Q290.94-27.14 288.02-32.02L288.02-32.02L288.02-32.02Q285.09-36.89 280.53-36.89L280.53-36.89L280.53-36.89Q275.96-36.89 270.27-30.42L270.27-30.42L270.27 0L267.38 0L267.38-39L270.27-39L270.27-34.32L270.27-34.32Q275.34-39.78 281.27-39.78L281.27-39.78L281.27-39.78Q283.69-39.78 286.53-38.06L286.53-38.06L286.53-38.06Q289.38-36.35 291.33-32.68L291.33-32.68L291.33-32.68Q296.87-39.78 304.04-39.78L304.04-39.78L304.04-39.78Q308.02-39.78 312.31-36.04L312.31-36.04L312.31-36.04Q314.50-34.01 315.94-30.03L315.94-30.03L315.94-30.03Q317.38-26.05 317.38-20.67L317.38-20.67L317.30 0L314.42 0L314.50-20.59L314.50-20.59Q314.50-27.14 311.34-32.02L311.34-32.02L311.34-32.02Q308.18-36.89 303.58-36.89L303.58-36.89L303.58-36.89Q300.53-36.89 297.45-34.79L297.45-34.79L297.45-34.79Q294.37-32.68 292.42-29.95L292.42-29.95L292.42-29.95Q293.83-25.90 293.83-20.67L293.83-20.67L293.75 0Z" fill="#444"></path></g></g><style>text {
  font-size: 64px;
  font-family: Arial Black;
  dominant-baseline: central;
  text-anchor: middle;
}</style></svg>